<?xml version="1.0" standalone="no"?>
<!DOCTYPE svg PUBLIC "-//W3C//DTD SVG 1.1//EN" "http://www.w3.org/Graphics/SVG/1.1/DTD/svg11.dtd" >
<svg xmlns="http://www.w3.org/2000/svg" xmlns:xlink="http://www.w3.org/1999/xlink" version="1.1">
<metadata>
Created by FontForge 20170731 at Sat Feb 22 17:59:45 2003
 By Aleksey,,,
(c)2003 P2+K2
</metadata>
<defs>
<font id="OilBatsBasic" horiz-adv-x="236" >
  <font-face 
    font-family="OilBats"
    font-weight="400"
    font-stretch="normal"
    units-per-em="1000"
    panose-1="0 0 4 0 0 0 0 0 0 0"
    ascent="800"
    descent="-200"
    x-height="403"
    cap-height="800"
    bbox="-152 -498 2495.12 1008"
    underline-thickness="20"
    underline-position="-163"
    unicode-range="U+0020-2564"
  />
<missing-glyph horiz-adv-x="500" 
d="M63 0v800h375v-800h-375zM125 63h250v675h-250v-675z" />
    <glyph glyph-name=".notdef" horiz-adv-x="500" 
d="M63 0v800h375v-800h-375zM125 63h250v675h-250v-675z" />
    <glyph glyph-name=".null" horiz-adv-x="0" 
 />
    <glyph glyph-name="nonmarkingreturn" 
 />
    <glyph glyph-name="space" unicode=" " 
 />
    <glyph glyph-name="quotedbl" unicode="&#x22;" 
 />
    <glyph glyph-name="hyphen" unicode="-" 
 />
    <glyph glyph-name="hyphen" unicode="&#x2010;" 
 />
    <glyph glyph-name="zero" unicode="0" horiz-adv-x="524" 
d="M515 689q2 -9 25 -49q22 -35 22 -53q0 -33 -93.5 -230t-126.5 -236q-51 -60 -87 -78q-88 -43 -149 -43q-106 0 -106 125q0 138 75 315.5t181 289.5q33 34 97 44q82 13 108 26q32 -11 43 -48q5 -31 11 -63zM152 370q-16 -38 -29 -108q-11 -59 -11 -87q0 -63 32 -63
q55 0 133 112q62 89 120 217q52 116 52 146q0 56 -15 80q-20 32 -72 32q-16 0 -93 -119q-79 -123 -117 -210z" />
    <glyph glyph-name="one" unicode="1" horiz-adv-x="301" 
d="M323 729q0 -24 -82 -288q-73 -235 -141 -441h-72q-3 -1 -7 -1q-21 0 -21 40q0 29 50 167q69 188 93 271q51 168 51 271q0 26 41 40q34 12 75 12q0 -12 6.5 -33t6.5 -38z" />
    <glyph glyph-name="two" unicode="2" horiz-adv-x="570" 
d="M435 737q2 -11 19 -57q15 -39 15 -59q0 -85 -82 -235q-69 -118 -138 -235q3 -13 20 -13t55 14t55 14q16 0 57.5 -7t68.5 -7q-18 -36 -50 -63q-27 -22 -52 -28q-256 -61 -281 -61h-100q-10 8 -19 16q-3 4 -3 32q0 10 89 117q110 131 166 221q90 141 90 235q0 34 -32 68
q-55 -11 -64 -58q-2 -40 -5 -80q-9 -41 -65 -41q-45 0 -55 26q0 5 -7 18t-7 32q0 31 67 110.5t108 99.5q17 4 39 4q60 0 111 -63z" />
    <glyph glyph-name="three" unicode="3" horiz-adv-x="541" 
d="M519 702q0 -68 -69 -163l-106 -128q69 -42 94 -81.5t25 -97.5q0 -104 -134 -175q-108 -57 -203 -57q-72 0 -126 18q0 55 7 86t7 36q22 0 59 -28t53 -28q45 0 133 42q106 50 106 106q0 61 -116 61q-39 0 -77 -7q-4 -1 -8 -1q-20 0 -52 32v54q8 7 141 109q108 83 140 141
v33l-17 16q-50 -28 -104 -81h-118v75q25 37 134 87q106 49 154 49q33 0 56 -35q21 -31 21 -63z" />
    <glyph glyph-name="four" unicode="4" horiz-adv-x="508" 
d="M469 746q-28 -78 -51 -199q-19 -100 -19 -135q0 -17 36 -35q41 -20 49 -36q-14 -14 -60 -43q-39 -24 -52 -44q-37 -57 -37 -88q0 -14 11 -33.5t11 -36.5q0 -31 -32 -63.5t-64 -32.5q-31 0 -56.5 25.5t-25.5 56.5q0 18 34 83t34 82q0 50 -46 50q-16 0 -79.5 -11
t-107.5 -11q0 13 -7 28.5t-7 33.5t27 56q31 43 37 64q29 101 36 290q15 20 22 26q15 10 43 10q23 0 42 -9q22 -13 44 -25q-33 -78 -67 -191q-33 -107 -33 -132q0 -17 1 -19q4 -5 8 -11q29 -11 46 -11q58 0 79 35q17 27 17 88q0 10 14 114.5t14 160.5q52 0 85 17z" />
    <glyph glyph-name="five" unicode="5" horiz-adv-x="588" 
d="M614 782q7 -6 14 -11q2 -3 2 -30q0 -30 -24.5 -51t-54.5 -21q-17 0 -26.5 13t-26.5 13q-24 0 -77 -25q-60 -29 -94 -63q-15 -16 -27 -59q-15 -58 -24 -77q3 -12 19 -12t36 13t36 13q61 0 88 -97q17 -60 17 -126q0 -125 -164 -203q-125 -59 -229 -59q-16 0 -30.5 6.5
t-35.5 6.5q0 12 -6.5 23.5t-6.5 29.5q0 52 59 52q16 0 26 -13t26 -13q94 0 168.5 61.5t74.5 135.5q0 42 -30 76q-11 -5 -68 -38q-43 -25 -61 -25h-77v93q0 16 52.5 110.5t52.5 110.5q0 18 -9 30l-28 28q336 126 378 126q38 0 50 -18z" />
    <glyph glyph-name="six" unicode="6" horiz-adv-x="532" 
d="M370 781q0 -13 7 -21t7 -26q0 -19 -26 -34q-31 -18 -39 -32q-106 -192 -171 -298q12 -26 31 -26q16 0 82 33t83 33q73 0 116 -38.5t43 -106.5q0 -67 -77 -133q-63 -55 -157 -96q-85 -36 -130 -36q-101 0 -125 30q-14 18 -14 96q0 154 89 338q83 172 228 336
q19 -19 53 -19zM160 191q-7 -10 -8 -38q-1 -33 -4 -44q14 -16 37 -16q55 0 133.5 63t78.5 109q0 22 -22 43q-25 23 -57 23q-20 0 -74.5 -48t-83.5 -92z" />
    <glyph glyph-name="seven" unicode="7" horiz-adv-x="527" 
d="M487 699q0 -18 -35 -109q-45 -117 -58 -157q44 -4 50 -4q42 0 95 18q-36 -48 -80 -77q-14 -9 -67 -35q-33 -16 -47 -35q-31 -45 -47 -129q-11 -78 -22 -157q-12 0 -38 -7t-44 -7q-33 0 -51.5 22.5t-18.5 54.5q0 17 42 87t42 88q0 17 -28 48.5t-28 49.5q0 28 43 51
q54 29 58 33q32 38 58 103q23 58 23 85q0 23 -32 48q-24 -7 -99 -41q-62 -28 -81 -28h-96q0 51 -26 76q82 28 218 63q160 42 221 60q1 -2 32 -51q16 -27 16 -50z" />
    <glyph glyph-name="eight" unicode="8" horiz-adv-x="428" 
d="M459 662q0 -62 -48 -124q-17 -22 -88 -92q-48 -47 -48 -72q0 -17 26.5 -79t26.5 -79q0 -88 -97 -157q-84 -59 -152 -59q-53 0 -79 143q0 24 8 38q7 11 14 21q14 54 42 96q8 11 46 54q21 24 21 41q0 18 -17 41.5t-19 36.5q-2 17 -18 132q-11 79 -11 99q0 47 123 77
q89 21 152 21q78 0 103 -46q15 -26 15 -92zM184 656q0 -43 16 -96t37 -82q143 141 143 197q0 20 -14 25q-14 -1 -50.5 16.5t-53.5 17.5q-19 0 -48.5 -29.5t-29.5 -48.5zM92 120q3 -10 3 -11q4 -4 16 -4q47 0 76 34q23 28 23 58q0 21 -10.5 45.5t-27.5 31.5q-33 -23 -56 -75
q-18 -40 -24 -79z" />
    <glyph glyph-name="nine" unicode="9" horiz-adv-x="485" 
d="M421 795q31 -37 61 -74q38 -46 38 -68q0 -48 -139 -418q-44 -117 -53 -187q-39 -48 -88 -48q-16 0 -24.5 6.5t-28.5 6.5v86q40 36 62 80q12 24 27 77q14 50 28 77q-6 14 -24 14q-17 0 -67 -13.5t-66 -13.5q-62 0 -101 29q-46 34 -46 98q0 126 125 243q118 110 228 110
q49 0 68 -5zM173 604q-28 -28 -53 -68q-27 -43 -27 -63q0 -34 35 -50q21 -10 45 -10q44 0 126 56q88 59 88 104q0 37 -25 137q-23 10 -42 10q-31 0 -147 -116z" />
    <glyph glyph-name="A" unicode="A" horiz-adv-x="431" 
d="M411 751q0 -15 -22 -138q-26 -145 -34 -204q-2 -11 -2 -24q0 -14 5 -58q3 -38 1 -61q-10 -18 -28 -48q-1 -55 -1 -110q-1 -62 -30 -108q-9 0 -30 5.5t-33 6.5q-26 -9 -26 35q0 15 23.5 73.5t23.5 73.5q0 21 -20 44q-18 20 -27 20q-70 0 -96 -72q-18 -75 -36 -151
q-10 0 -32.5 -6t-34.5 -6q0 11 -6 27.5t-6 31.5q0 23 107 242q93 190 183 362q15 36 30 71q21 43 52 43q10 0 21 -4q15 -14 15 -15q3 -5 3 -30zM199 387q0 -30 8 -38.5t28 -8.5q15 0 25 7q4 4 17 21q8 91 38 169q-11 11 -17 13q-99 -129 -99 -163z" />
    <glyph glyph-name="B" unicode="B" horiz-adv-x="522" 
d="M459 788q0 -11 6 -18.5t6 -22.5q0 -46 -51 -132q-38 -59 -75 -118q29 -21 78 -38q46 -15 60 -26q23 -21 23 -68q0 -57 -64 -129q-55 -63 -130 -108q-22 -13 -95 -76q-59 -52 -76 -52q-12 0 -42 16t-47.5 11.5t-51.5 12.5v67q0 8 16 36q20 37 35 84q57 170 166 522
q36 20 85.5 35.5t73.5 15.5q14 0 39 -6t44 -6zM247 575v-41l13 -13q25 21 70.5 85t45.5 82q0 17 -19 26q-3 -3 -68 -63q-42 -38 -42 -76zM198 382q-31 -48 -61 -136q-37 -106 -54 -141q3 -11 17 -11q72 0 187 84q125 91 125 169q0 57 -100 57q-19 0 -42 -2l-23 -2
q-37 0 -49 -18z" />
    <glyph glyph-name="C" unicode="C" horiz-adv-x="510" 
d="M547 687q0 -57 -59 -133q-31 -12 -43 -12q-20 0 -50 10q15 29 30 58.5t15 49.5q0 19 -13.5 33t-33.5 14q-18 0 -61 -46q-56 -61 -62 -66q-40 -32 -49 -40q-30 -27 -46 -55q-34 -58 -67 -161q-28 -90 -28 -119q0 -30 27.5 -65t52.5 -35q87 0 198 154l46 -46
q-37 -56 -73 -113q-39 -57 -73 -83q-43 -32 -98 -32q-106 0 -141 70q-19 40 -19 137q0 124 54 261q56 142 146 232q100 100 213 100q40 0 83 -29q51 -35 51 -84z" />
    <glyph glyph-name="D" unicode="D" horiz-adv-x="541" 
d="M569 466q0 -17 -7 -30t-7 -29q0 -106 -102 -208q-83 -84 -211 -145q-114 -54 -178 -54q-25 0 -38 10l-26 28q103 126 181 327l116 322q4 8 4 19q0 5 -3 29q-2 20 0 32q2 1 30 19q23 14 44 14q43 0 94 -84q37 -62 73 -159q30 -80 30 -91zM176 159q8 -15 25 -15
q20 0 96.5 65.5t124.5 126.5q25 31 41 80q14 42 14 69q0 49 -26 84q-5 6 -77 79q-64 -108 -116 -245q-27 -71 -82 -244z" />
    <glyph glyph-name="E" unicode="E" horiz-adv-x="588" 
d="M606 800q0 -12 6.5 -40t6.5 -47q-23 -8 -133 -26q-80 -14 -117 -42q-32 -26 -61 -90l-48 -116q7 -13 24 -13q16 0 58 25.5t58 25.5q29 0 90 -30q0 -8 18 -33q-36 -44 -112 -61l-108 -20q-41 -14 -89 -87q-44 -68 -44 -104q0 -26 39 -26q16 0 116 32.5t116 32.5
q57 0 108 -52q-34 -36 -194 -83q-156 -46 -237 -46q-15 0 -42.5 6.5t-47.5 6.5q0 12 -6.5 23.5t-6.5 28.5q0 27 42 76q-3 10 -3 27q0 29 151 315q21 39 36 103l24 118q56 44 150 58q102 15 138 38h68z" />
    <glyph glyph-name="F" unicode="F" horiz-adv-x="472" 
d="M480 800q26 9 26 -35q0 -24 -10 -30.5t-21 -12.5q-92 -10 -172 -64q-90 -62 -80 -135l15 -15q29 5 127 24q0 -14 5.5 -37t5.5 -32q-48 -20 -183 -53q-16 -16 -40 -143q-24 -123 -24 -185q0 -14 -5.5 -33t-5.5 -37q-11 0 -27.5 -6t-31.5 -6q-34 0 -49 28q-10 18 -10 37
q0 15 12 54q13 43 15 63q10 4 23.5 17.5t15.5 26.5q13 65 52 229q36 148 50 232q17 22 39 39q70 8 120 43q46 31 74 31h79z" />
    <glyph glyph-name="G" unicode="G" horiz-adv-x="600" 
d="M643 675q0 -31 -29.5 -58t-56.5 -27q-16 0 -58.5 65.5t-59.5 65.5q-45 0 -115 -75q-51 -56 -108 -144q-46 -71 -50.5 -84.5t-36.5 -92.5q-24 -57 -24 -76q0 -64 37 -110.5t94 -46.5q41 0 107 68q28 29 86 102q-22 27 -58 52q-73 50 -76 52q54 54 98 54q50 0 114 -32
q70 -35 70 -73q0 -20 -25 -38q-32 -22 -39 -34q-9 -16 -22 -68q-12 -47 -27 -65q-16 -21 -55 -43l-66 -34q-58 -33 -120 -33q-31 0 -89 31q-63 35 -101 78q-33 38 -33 140q0 67 64 198q68 142 156 238q106 115 200 115q57 0 126 -25q97 -36 97 -100z" />
    <glyph glyph-name="H" unicode="H" horiz-adv-x="493" 
d="M525 734q0 -15 -27 -102q-32 -103 -42 -145q-72 -328 -74 -487h-79q-16 33 -16 84q0 30 16 117q19 103 42 168q-7 13 -23 13q-20 0 -74 -32q-59 -34 -93 -71q-27 -30 -33 -108l-8 -116q-19 -31 -54 -31q-28 0 -44 19t-16 47q0 14 66 237q78 264 104 366q10 0 27.5 5.5
t29.5 5.5q0 -11 6 -21.5t6 -25.5q0 -16 -19 -97q-23 -97 -29 -129q4 -13 18 -13q35 0 102 49t75 74q32 111 32 247q11 0 24.5 6t29.5 6q53 0 53 -66z" />
    <glyph glyph-name="I" unicode="I" horiz-adv-x="265" 
d="M245 672q-56 -192 -115 -456q-11 -50 -14 -79q-5 -83 -59 -137q-57 28 -57 91q0 18 68 277q85 322 110 432q27 0 62 -14q44 -19 44 -47q0 -23 -15 -41z" />
    <glyph glyph-name="J" unicode="J" horiz-adv-x="517" 
d="M554 692q0 -17 -30 -84q-35 -79 -43 -108q-49 -171 -89 -259q-109 -241 -241 -241q-66 0 -110 55q-41 51 -41 121q0 9 19 86t19 128h78q48 -24 48 -82q0 -15 -25.5 -75t-25.5 -76q0 -44 38 -44q41 0 110 96q47 66 75 124q25 50 47 137q29 117 36 138q45 135 82 192
q53 -52 53 -108z" />
    <glyph glyph-name="K" unicode="K" horiz-adv-x="563" 
d="M290 800q0 -19 27 -46q-24 -50 -44 -118q-14 -54 -29 -109l11 -11l128 152q104 120 148 120q14 0 33.5 -6t38.5 -6v-67q-93 -59 -183 -144q-118 -110 -118 -168q0 -52 41 -115q20 -31 75 -96q41 -47 41 -61v-83h-93q-3 8 -17 70q-11 44 -25 68q-18 29 -60 71
q-56 57 -71 75q-36 -36 -47 -109q-15 -95 -25 -119q-28 -64 -107 -98q0 49 -14 63l233 737h57z" />
    <glyph glyph-name="L" unicode="L" horiz-adv-x="495" 
d="M345 743l-185 -597q2 -35 37 -35q24 0 201 25q8 -7 18 -29.5t23 -36.5q-43 -21 -119 -27q-107 -9 -108 -9q-9 -2 -49 -19q-36 -15 -54 -15h-97q0 12 -6 28.5t-6 33.5q0 15 35 50q39 38 47 64q10 33 94 344q5 19 44 107q30 66 30 117q0 28 -7 56h89q0 -14 6.5 -34.5
t6.5 -22.5z" />
    <glyph glyph-name="M" unicode="M" horiz-adv-x="657" 
d="M405 715q0 -15 -24.5 -81.5t-24.5 -81.5q0 -25 22 -47q45 81 140 271h107q-39 -211 -47 -390q-12 -265 -16 -300q8 -25 -36 -25q-34 0 -56 34q-17 26 -17 44q0 16 24.5 118t24.5 117v106l-9 9q-27 -50 -74 -153q-1 -5 2 -15.5t3 -15.5q0 -4 -1 -8q-44 -55 -91 -55
q-40 0 -49 23v142l-9 9q-93 -172 -105 -198q-59 -124 -69 -218h-100q43 128 143 389q92 240 132 366q14 45 63 45q26 0 49 -41q18 -32 18 -44z" />
    <glyph glyph-name="N" unicode="N" horiz-adv-x="563" 
d="M603 732q0 -31 -92 -232q-31 -69 -62 -137q-36 -82 -52 -145q-5 -15 -5 -36q0 -40 15 -97q-30 -60 -87 -60q-25 0 -38 9q-7 5 -21 24q9 76 9 144q0 159 -49 254q-55 -93 -88 -199q-35 -113 -35 -209q0 -18 1 -36q-9 0 -34 -6t-53 -6q0 12 -6 32t-6 36q0 81 92 321.5
t92 313.5q0 13 -2 23q5 0 48.5 6t101.5 6q-31 -38 -31 -129q0 -45 9 -120q9 -82 10 -98q9 -4 21 -14q144 271 151 396q-8 27 37 27q40 0 60 -25q14 -18 14 -43z" />
    <glyph glyph-name="O" unicode="O" horiz-adv-x="459" 
d="M490 542q0 -60 -32 -177q-41 -149 -104 -243q-82 -122 -186 -122q-113 0 -149 82q-19 42 -19 137q0 135 59 256q49 102 167 240q28 24 75 65q19 20 73 20q69 0 99 -123q17 -68 17 -135zM338 704q0 -3 5 -13t5 -26q0 -7 -70 -84q-85 -93 -130 -168q-71 -115 -71 -213
q0 -31 13 -63q18 -47 52 -47q75 0 144 101q54 79 94 202q33 102 33 149q0 39 -18 140q-2 15 -44 38q-8 -9 -13 -16z" />
    <glyph glyph-name="P" unicode="P" horiz-adv-x="479" 
d="M513 648q0 -27 -19 -87q-21 -67 -46 -102q-50 -69 -132 -101q-63 -19 -125 -38q-40 -16 -40 -61v-16q1 -10 1 -14q0 -8 -17.5 -86.5t-17.5 -128.5q-14 13 -22 13q-13 0 -13 -27l-58 28q-24 16 -24 38q0 14 35 113t35 114t-17.5 41t-17.5 39q14 15 40 22.5t33 15.5
q23 30 43 89q16 52 32 105q6 20 6 65q1 34 1 67q51 27 122 46q62 17 90 17q47 0 82 -64q29 -52 29 -88zM198 449v-29l14 -14q60 29 143 117q88 93 88 137q0 47 -82 47q-44 0 -106 -111q-57 -102 -57 -147z" />
    <glyph glyph-name="Q" unicode="Q" horiz-adv-x="551" 
d="M533 636q0 -15 -6 -63.5t-6 -63.5q0 -39 -54 -186q-6 -17 -44 -58q-35 -37 -35 -53q0 -33 60 -123v-58q-8 -11 -16.5 -21t-31.5 -10q-36 0 -53 48q-22 66 -56 94q-126 -94 -158 -94q-60 0 -102 91q-31 67 -31 103q0 70 24 182q33 154 93 250q79 126 192 126q75 0 146 -46
q78 -51 78 -118zM169 573q-9 -10 -39 -130q-33 -130 -33 -188q0 -26 18.5 -55.5t36.5 -29.5q19 0 67 40t48 57q0 37 -88 183l58 58q12 2 21 2q40 0 51 -31q1 -2 11 -67q7 -46 32 -69q43 33 72 113q24 70 24 126q0 49 -33 89q-38 44 -100 44q-18 0 -66 -52z" />
    <glyph glyph-name="R" unicode="R" horiz-adv-x="575" 
d="M281 763q16 0 63 12.5t62 12.5q119 0 119 -113q0 -81 -54 -176q-63 -109 -163 -165q18 -21 41 -61q33 -56 40 -66q9 -15 37 -28q21 -11 42 -21l12 -26q7 -17 7 -38q0 -15 -6 -38.5t-6 -42.5q-12 0 -29 -6.5t-34 -6.5l-81 114q-89 126 -143 170q-65 -55 -65 -185
q0 -30 4 -61q-13 0 -21.5 -6.5t-24.5 -6.5q-44 0 -65 26q-16 19 -16 43q0 11 39 131q47 147 72 250q39 162 39 275q0 50 75 50q16 0 28.5 -18.5t27.5 -18.5zM226 581q-26 -46 -26 -118q0 -17 8 -28q2 -3 22 -22q40 8 117.5 96.5t77.5 121.5q0 25 -21 47t-42 22
q-19 0 -64 -38q-48 -40 -72 -81z" />
    <glyph glyph-name="S" unicode="S" horiz-adv-x="484" 
d="M502 720q-40 -41 -117 -66q-1 1 -18 16q-10 8 -10 20q0 11 7 29q-7 3 -20 3q-55 0 -98 -72q-35 -59 -35 -94q0 -40 52 -101q48 -55 96 -111q52 -69 52 -127q0 -104 -105 -167q-83 -50 -167 -50q-44 0 -88 20q-51 24 -51 58q0 25 27.5 57.5t61.5 48.5q0 -12 3 -18
q6 -10 35 -10q-23 -22 -49 -54q13 -24 39 -24q54 0 133 51q83 54 83 104q0 31 -54 89q-94 100 -102 111q-55 70 -55 128q0 126 94 189q73 50 178 50q32 0 64 -26q29 -23 44 -54z" />
    <glyph glyph-name="T" unicode="T" horiz-adv-x="595" 
d="M638 736q0 -31 -23 -41q-15 -7 -55 -7h-10h-11q-101 0 -133 -56q-21 -37 -33 -114q-14 -93 -23 -117q-58 -175 -58 -327q0 -29 3 -54q-17 -17 -18 -17q-5 -3 -32 -3q-23 0 -44 30q-17 25 -17 44q0 24 43 218.5t78 329.5q-11 16 -29 16q-15 0 -107 -24.5t-108 -24.5
t-33 12t-28 12v71q31 8 90 11q65 3 92 8q128 29 443 97q0 -13 6.5 -30.5t6.5 -33.5z" />
    <glyph glyph-name="U" unicode="U" horiz-adv-x="523" 
d="M561 745q0 -18 -22.5 -88t-22.5 -89q0 -82 -39 -211q-44 -147 -111 -242q-81 -115 -174 -115q-37 0 -70 14q-42 18 -58 54q-28 63 -48 194q-16 105 -16 151q0 16 32 133q35 128 44 191q11 1 44 24q42 -60 42 -104q0 -19 -14.5 -126t-14.5 -125q0 -52 15 -127
q19 -89 46 -126q121 99 161 209q29 79 29 228q0 21 8 65q9 52 11 72q67 48 116 73q16 -10 31 -20q11 -7 11 -35z" />
    <glyph glyph-name="V" unicode="V" horiz-adv-x="485" 
d="M507 787q0 -13 6.5 -21.5t6.5 -25.5q0 -20 -26 -48q-34 -35 -39 -45q-57 -106 -168 -372l-67 -134q-7 -15 -9 -36q-1 -15 1 -41q1 -33 1 -43q-7 -9 -15 -18q-4 -3 -31 -3q-31 0 -65.5 28t-34.5 59q0 16 13 23t13 23q0 17 -6.5 113.5t-6.5 113.5q0 45 -40 165.5t-40 114.5
q0 16 6.5 24t6.5 29q13 0 24.5 7t29.5 7q26 0 41 -12q9 -6 33 -37q6 -110 32 -345l11 -11q62 143 125 285q98 213 144 213q16 0 24.5 -6.5t29.5 -6.5z" />
    <glyph glyph-name="W" unicode="W" horiz-adv-x="586" 
d="M628 745q0 -16 -62 -218q-72 -239 -96 -333q-1 -6 2 -20q3 -17 3 -23t-1 -10q-45 -55 -80 -55q-28 0 -33 3l-12 16q-26 84 -38 164q-6 43 -30 71q-58 -44 -103 -155q-58 -144 -85 -185h-81q0 12 -6 35t-6 39q0 21 7 28l13 13q42 331 42 414q0 96 -28 150l35 35h79
q0 -19 6 -51.5t6 -47.5q0 -82 -24 -278l10 -10q61 88 68 100q16 26 16 42q0 4 -4 35t-4 68q0 56 73 56q51 0 83 -28q28 -25 28 -58q0 -16 -18.5 -46.5t-18.5 -46.5q0 -33 38 -95q43 58 65 144q13 53 25 156t23 146h45q63 0 63 -55z" />
    <glyph glyph-name="X" unicode="X" horiz-adv-x="532" 
d="M321 415q0 -16 63.5 -144.5t63.5 -144.5v-100h-97q-13 24 -38 119q-22 83 -57 129q-44 -78 -87 -157q-66 -117 -91 -117q-44 0 -78 34q3 16 113 190q105 168 105 204q0 17 -29 125q-37 141 -49 195q29 14 53 14t51 -13q0 -9 -6.5 -19t-6.5 -27q0 -54 52 -132
q44 57 119 186q3 5 27 16q48 22 58 27q0 -56 -43 -145q-18 -38 -80 -145q-43 -75 -43 -95z" />
    <glyph glyph-name="Y" unicode="Y" horiz-adv-x="386" 
d="M414 785q0 -80 -78 -264q-50 -108 -99 -217q-61 -144 -102 -328q-17 17 -27.5 20.5t-38.5 3.5q0 11 -6 21.5t-6 25.5t47.5 134t47.5 134q0 16 -6 25q-10 13 -10 14q-2 60 -63 175q-13 24 -23 66q-16 64 -18 69q-23 0 -23 36v68q17 9 42 9q10 0 31 -2t31 -2
q11 -74 23 -147q15 -94 63 -155q46 71 73 177q18 68 36 196q10 0 20 6t26 6q28 0 44 -21.5t16 -49.5z" />
    <glyph glyph-name="Z" unicode="Z" horiz-adv-x="505" 
d="M508 730q0 -18 -118 -220q-159 -272 -197 -342q17 -16 42 -16q16 0 48.5 19t48.5 19h67l35 -35q-33 -67 -63 -74q-46 -9 -157 -47q-98 -34 -114 -34h-87q0 12 -6.5 36t-6.5 40q0 19 27 44q36 35 46 52q81 129 280 500q-17 26 -36 26q-15 0 -63.5 -31.5t-64.5 -31.5h-100
q0 12 -6.5 26t-6.5 31q0 25 11 35t22 18q45 7 183 34q110 21 127 21q52 0 73 -20q16 -15 16 -50z" />
    <glyph glyph-name="a" unicode="a" horiz-adv-x="466" 
d="M387 388v-57q0 -17 -32 -92q-42 -99 -51 -124q22 -16 60 -16q-5 -45 -27 -65q-11 -11 -61 -34l-59 58q-62 -56 -120 -56q-40 0 -68.5 26.5t-28.5 58.5q0 30 41 116q47 98 103 164q71 83 134 83q24 0 29 -12q8 -23 12 -27q17 -16 68 -23zM97 123q0 -18 24 -33
q157 120 157 239q0 21 -23 43q-42 -46 -96 -127q-62 -93 -62 -122z" />
    <glyph glyph-name="b" unicode="b" horiz-adv-x="440" 
d="M335 766q-27 -60 -70.5 -178t-67.5 -172v-29l13 -13q25 20 61 20q51 0 84 -55q27 -44 27 -81q0 -104 -91 -184q-82 -74 -168 -74q-15 0 -46.5 12t-49.5 13q-27 -9 -27 37q0 29 41 139q49 150 152 443l22 102q19 58 86 54zM123 77q6 -3 19 -3q53 0 96 80q33 61 33 86
q0 55 -33 48q-83 -38 -100 -83q-9 -18 -17 -35q-10 -23 -10 -41q0 -16 6 -29.5t6 -22.5z" />
    <glyph glyph-name="c" unicode="c" horiz-adv-x="420" 
d="M354 310q-12 -13 -24 -24.5t-36 -11.5q-16 0 -31.5 18.5t-30.5 18.5q-16 0 -80 -86t-64 -107q0 -17 21.5 -36.5t41.5 -19.5q22 0 158 68q2 -10 2 -20q0 -54 -72 -86q-55 -24 -107 -24q-72 0 -101.5 20t-29.5 73q0 25 50 115q54 98 112 167q72 86 119 86q21 0 36 -34
q9 -19 20 -67q10 -42 16 -50z" />
    <glyph glyph-name="d" unicode="d" horiz-adv-x="516" 
d="M538 800v-85q0 -19 -80 -278t-80 -277t14.5 -22.5t14.5 -22.5v-86q-13 0 -29.5 -7t-35.5 -7q-21 0 -43 20q-18 17 -35 34q-34 -28 -94 -50q-51 -19 -75 -19q-48 0 -73 35q-22 29 -22 74q0 65 80 172q74 92 147 183q23 -7 42 -7q55 0 84 57q21 43 29 119q3 49 6 99
q24 36 89 68h61zM116 157v-37q2 -6 5 -12t17 -6q62 0 112 80q41 64 41 102q0 22 -42 46q-92 -94 -133 -173z" />
    <glyph glyph-name="e" unicode="e" horiz-adv-x="403" 
d="M365 341q0 -53 -106 -123q-72 -42 -145 -84q17 -52 71 -52q20 0 64.5 9.5t65.5 9.5q-1 -14 -8 -42q-37 -24 -86.5 -41.5t-76.5 -17.5q-45 0 -90 21q-55 26 -55 67q0 83 25 143q34 70 67 140q13 30 62 57t86 27q39 0 85 -50q41 -44 41 -64zM152 268l13 -12q32 19 63 38
q36 24 36 41q0 24 -35 41q-57 -59 -77 -108z" />
    <glyph glyph-name="f" unicode="f" horiz-adv-x="367" 
d="M393 738q0 -22 -18 -57q-22 -42 -51 -57q-45 -3 -45 31q0 16 10 31t19 29l-9 10q-48 -34 -59 -73q-41 -140 -43 -207l7 -18q31 -1 132 -26q-29 -19 -101 -35q-46 -11 -68 -57q-19 -39 -36 -111q-18 -77 -31 -107q-24 -56 -70 -91q-14 14 -30 14v53q0 15 34 88
q28 63 57 125q-8 10 -24 10q-19 0 -57 -11q0 13 -5 33.5t-5 28.5l70 28q39 17 51 43q11 20 21.5 135.5t39.5 169.5q44 83 144 83q67 0 67 -62z" />
    <glyph glyph-name="g" unicode="g" horiz-adv-x="513" 
d="M390 317q9 -28 36 -42q20 -10 20 -52q0 -24 -14 -56l-28 -54l-34 -158q-39 -165 -90 -263q-73 -138 -169 -138q-55 0 -123 99q-60 88 -60 124q0 4 2 5q7 10 17 10q24 0 80 -67t69 -67q75 0 141 168q34 87 60 202q-5 17 -22 17q-19 0 -67 -22.5t-67 -22.5q-141 0 -141 97
q0 31 61 119q56 82 107 133q37 37 95 58q18 6 109 29q19 -1 19 -37q0 -11 -2 -33t-2 -31q0 -12 3 -18zM119 109q4 -7 9 -13.5t21 -6.5q35 0 93 34q63 36 70 70q2 10 2 19q0 56 -76 56q-26 0 -71 -57.5t-48 -101.5z" />
    <glyph glyph-name="h" unicode="h" horiz-adv-x="430" 
d="M292 743q0 -16 -44.5 -159t-44.5 -159q0 -32 33 -32q6 0 18.5 1.5t18.5 1.5q20 0 28 -9q27 -29 48 -82q19 -47 19 -76q0 -36 -35.5 -108.5t-61.5 -95.5q-1 -1 -6 -1q-16 0 -41 13t-24 24l46 88q21 41 21 61q0 34 -40 78q-110 -90 -113 -288q-12 0 -33 -2.5t-32 -2.5
q-24 0 -49 9v86q0 19 41 93q46 84 56 125q68 262 68 416q0 29 17 52.5t47 23.5q63 0 63 -57z" />
    <glyph glyph-name="i" unicode="i" horiz-adv-x="297" 
d="M318 674v-57q-32 -6 -59 -6q-74 0 -74 37q0 31 24.5 52.5t55.5 21.5q23 0 33.5 -16t19.5 -32zM258 401q-42 -90 -85 -181q-50 -114 -56 -207q-11 0 -35.5 -6.5t-49.5 -6.5l-38 38q26 46 110 238q61 138 81 138q16 0 36 -6.5t37 -6.5z" />
    <glyph glyph-name="j" unicode="j" horiz-adv-x="327" 
d="M313 646q-1 -2 -25 -38q-12 -18 -36 -18q-17 0 -39.5 7t-44.5 7v64q67 34 104 34q9 -16 41 -56zM241 358q11 -30 11 -102q0 -17 -21 -177.5t-21 -177.5q0 -29 -24.5 -97t-52.5 -112q-24 -40 -86 -68q-52 -22 -87 -22q-45 0 -78.5 30.5t-33.5 66.5q0 32 5 44.5t27 34.5
q53 -107 94 -107q91 0 136 173q31 116 31 237q10 10 10 50q0 48 -11 242l42 42q27 -21 59 -57z" />
    <glyph glyph-name="k" unicode="k" horiz-adv-x="528" 
d="M253 800q25 8 25 -35q0 -14 -103 -391l12 -11q115 78 213 194h64q0 -11 5.5 -18.5t5.5 -22.5q0 -18 -71 -88l-134 -128q29 -35 90 -76q97 -62 110 -72q-18 -18 -26.5 -21t-31.5 -3q-56 0 -128 46q-108 69 -129 78q-44 -64 -44 -157q0 -33 6 -64l-31 -31h-68
q-15 15 -15 16q-3 6 -3 30q0 14 42 122q47 121 58 171q31 151 99 461h54z" />
    <glyph glyph-name="l" unicode="l" horiz-adv-x="282" 
d="M282 800l18 -14q2 -4 2 -30q0 -15 -48 -145q-55 -146 -70 -205q-35 -132 -99 -406q-85 42 -85 82q0 15 40 113q46 109 56 154q24 118 47 235q31 134 90 216h49z" />
    <glyph glyph-name="m" unicode="m" horiz-adv-x="593" 
d="M240 395q27 -3 54 -7q38 -9 64 -36l50 52q31 30 59 44h41q13 -13 15.5 -20.5t2.5 -29.5q0 -52 -58 -342h-47l-16 16q-2 5 -2 29q0 14 33 209l-11 10q-54 -55 -91 -152l-58 -168q-8 0 -32 5.5t-43 5.5v69q0 14 28 77t28 77v43q-1 5 -3 9.5t-14 4.5q-55 0 -96 -138
q-32 -112 -32 -198q-6 0 -34 -5.5t-67 -5.5q0 11 -5.5 23.5t-5.5 26.5q0 16 19.5 41.5t20.5 33.5q10 44 52 164q31 88 31 153q0 31 18 47q15 15 38 15q18 0 33 -19q27 -33 28 -34z" />
    <glyph glyph-name="n" unicode="n" horiz-adv-x="471" 
d="M91 398q1 8 20 26q24 23 48 45q14 -18 29 -37q11 -17 11 -39q0 -8 -1 -18q8 -5 25 -5t53.5 26.5t52.5 26.5q28 0 49 -46q17 -37 17 -60q0 -18 -16 -58q-18 -44 -20 -63q-2 -12 -2 -26q0 -20 6 -67.5t6 -76.5q-14 0 -39 -6.5t-35 -6.5q-33 57 -33 129q0 14 1.5 45t1.5 48
q0 21 -2 39q-6 3 -20 3q-38 0 -72 -72q-27 -66 -53 -133q-29 -72 -53 -72q-17 0 -35.5 6.5t-30.5 6.5v68q0 11 42 131q44 125 50 186z" />
    <glyph glyph-name="o" unicode="o" horiz-adv-x="499" 
d="M445 291q0 -90 -101.5 -190.5t-183.5 -100.5q-62 0 -105 23q-56 29 -56 88q0 36 36 116q40 87 89 147q60 72 110 72q53 0 132 -56t79 -99zM110 149q0 -39 20 -52q14 -10 49 -10q48 0 120 70t72 109q0 49 -57 63q-20 5 -67 5q-36 0 -89 -81q-48 -74 -48 -104z" />
    <glyph glyph-name="p" unicode="p" horiz-adv-x="492" 
d="M434 296q0 -96 -98 -198q-95 -98 -174 -98q-15 0 -27 12t-27 12q-32 0 -32 -45q0 -4 1 -14v-15q0 -17 -4 -26q-38 -83 -57 -212q-24 -161 -38 -209q-21 21 -51 23q-26 -9 -26 35q0 143 102 446l126 364q15 56 199 56q49 0 81 -53q25 -42 25 -78zM126 113q0 -30 42 -30
q64 0 127 78q56 70 56 118q0 23 -19.5 44t-39.5 21q-45 0 -108 -102q-58 -92 -58 -129z" />
    <glyph glyph-name="q" unicode="q" horiz-adv-x="441" 
d="M367 296q11 -7 11 -37q0 -19 -32 -76q-38 -67 -47 -91q-44 -128 -89 -283q-17 -45 -47 -141l12 -12q21 22 56 22h112q-61 -61 -138 -117q-82 -59 -111 -59q-23 0 -66 49q-34 40 -46 64q68 45 106 135q25 58 47 171q23 119 38 158q-20 15 -70 17q-53 3 -71 13
q-33 17 -33 69q0 69 85.5 163t151.5 94q52 0 69 -21q6 -7 20 -52q12 -40 43 -66h-1zM107 226v-29l16 -16q51 26 65 34q41 27 41 51q0 22 -51 44q-23 -29 -71 -84z" />
    <glyph glyph-name="r" unicode="r" horiz-adv-x="367" 
d="M326 462q17 0 35 -7t31 -7v-79h-80q-17 0 -60 -41.5t-70 -84.5q-70 -107 -70 -191q0 -27 6 -52h-101q-18 18 -18 19q-3 6 -3 34q0 16 37 158q44 171 60 251q23 -23 39 -55q19 -40 24 -46q72 61 91 73q41 28 79 28z" />
    <glyph glyph-name="s" unicode="s" horiz-adv-x="461" 
d="M396 437q0 -26 -3 -29q-8 -3 -17 -7q-51 -5 -106 -42q-51 -34 -80 -77q58 -35 116 -71q66 -45 66 -94q0 -46 -87 -86q-67 -31 -89 -31h-197v58q175 4 264 62q-19 27 -67 54q-58 34 -70 44q-33 28 -33 68q0 62 111 114q53 27 171 80q9 -8 18 -15q3 -4 3 -28z" />
    <glyph glyph-name="t" unicode="t" horiz-adv-x="387" 
d="M354 754q0 -14 -45.5 -131t-45.5 -132q0 -36 32 -36q11 0 41 6.5t44 6.5q12 0 20 -3v-76q-174 0 -85 1q-49 -1 -80.5 -14.5t-59.5 -110.5q-10 -34 -41 -174q-20 -91 -31 -91q-57 0 -57 46q0 14 35 115q43 121 54 165q-29 17 -52 19q23 -2 -58 -2q-25 -9 -25 34
q0 36 58 46q37 2 75 4q22 15 35 35q50 148 80 239q9 28 -15 76q11 0 44.5 11.5t65.5 11.5q0 -11 5.5 -21t5.5 -25z" />
    <glyph glyph-name="u" unicode="u" horiz-adv-x="418" 
d="M447 522v-46q0 -37 -65 -154q-68 -123 -143 -212q-89 -108 -142 -108q-97 0 -97 121q0 123 114 327h60l17 -17q3 -6 3 -31q0 -34 -27.5 -71.5t-53.5 -74.5q-28 -48 -28 -102q0 -25 24 -50q62 57 124 113q57 52 78 92q28 49 28 117q0 53 43 96h65z" />
    <glyph glyph-name="v" unicode="v" horiz-adv-x="309" 
d="M320 520q12 -11 12 -41l-237 -479h-84q0 10 -5.5 25.5t-5.5 29.5t11 19.5t11 19.5q0 29 -12.5 94t-12.5 104q0 44 11 85q43 -6 60 -45q11 -26 13 -79q2 -57 6 -70l10 -10q63 107 172 347h51z" />
    <glyph glyph-name="w" unicode="w" horiz-adv-x="454" 
d="M461 426q0 -14 -45 -142q-56 -157 -71 -206q-17 -58 -51 -58q-39 0 -51 16q-8 10 -10 42q-3 36 -13 57l-10 10q-115 -216 -144 -216q-42 0 -57 101q-8 55 -7 122q1 56 1 59q-3 34 -20 64q39 38 68 38q15 0 56 -47q0 -14 -10 -18.5t-10 -16.5v-136l8 -8q38 67 110 201
q2 14 6 50q7 9 14.5 17.5t28.5 8.5q62 0 62 -66q0 -35 -15 -73l9 -10q37 28 56 93l30 110q21 61 65 84v-76z" />
    <glyph glyph-name="x" unicode="x" horiz-adv-x="421" 
d="M342 455q0 -15 -58 -88t-58 -87q0 -38 105 -195v-67l-14 -16q-3 -2 -27 -2t-27 2l-12 14q-18 48 -63 141q-5 9 -20 24q-43 -61 -140 -193q0 26 -12 48t-12 34q0 15 64.5 111t64.5 110q0 15 -41 67.5t-41 66.5t6 24.5t6 28.5h59q51 -10 47 -73q9 -4 22 -16q30 32 59 64
q33 34 59 52l24 -20q9 -9 9 -30z" />
    <glyph glyph-name="y" unicode="y" horiz-adv-x="417" 
d="M377 332q0 -15 -101 -231q-115 -247 -152 -352q-56 -162 -176 -226q0 18 -6.5 28t-6.5 26q0 -1 97.5 203.5t97.5 225.5q0 20 -29 94l-52 128q-14 10 -28 21q-21 16 -21 37q0 34 19 65q43 0 79 18q10 -26 35 -106q20 -63 39 -98q35 41 85 140q4 9 9 39q5 26 15 41
q9 5 19 11.5t32 6.5q28 0 38 -20q7 -15 7 -51z" />
    <glyph glyph-name="z" unicode="z" horiz-adv-x="462" 
d="M353 415q-9 -59 -68 -154q-53 -78 -106 -157q8 -13 26 -13q15 0 45 18t45 18h62q15 -16 16 -17q2 -5 2 -30q0 -35 -31 -54q-168 -29 -312 -77q-32 32 -32 66q0 18 77 125q65 92 131 185q-12 13 -32 13q-15 0 -56 -18t-56 -18q-17 0 -32 14q-20 20 -32 26q0 28 30 50
q15 3 133 31q83 20 101 20q32 0 89 -28z" />
    <glyph glyph-name="braceleft" unicode="{" 
 />
    <glyph glyph-name="bar" unicode="|" 
 />
    <glyph glyph-name="braceright" unicode="}" 
 />
    <glyph glyph-name="asciitilde" unicode="~" 
 />
    <glyph glyph-name="dieresis" unicode="&#xa8;" 
 />
    <glyph glyph-name="minus" unicode="&#xad;" 
 />
    <glyph glyph-name="minus" unicode="&#x2212;" 
 />
    <glyph glyph-name="registered" unicode="&#xae;" horiz-adv-x="2506" 
d="M2209 790q-2 -12 3 -24t2 -29q-2 -16 -49.5 -72.5t-49.5 -72.5l-5 -34q1 -6 2.5 -11.5t14.5 -7.5q16 -2 115 23.5t115 22.5q19 -2 35 -17q10 -10 20 -19q16 0 77 -8q-2 -12 3 -24.5t2 -29.5q-2 -16 -74.5 -65t-74.5 -65q-3 -16 48 -65q61 -61 78 -91q-44 -38 -135 -65
q-83 -25 -143 -25q-12 0 -21 1q-49 7 -63 24t-39 96q25 -4 55.5 -21.5t44.5 -19.5q38 -5 138 48l-60 78q-23 31 -19 57q6 43 45 81q26 25 92 68q-1 9 -16 11q-32 4 -144 -31q-131 -40 -181 -89q-43 -42 -68 -111q-15 -41 -33.5 -134t-35.5 -139q-49 24 -49 81q0 14 5 47
q2 17 31 81t31 80l14 102q-29 -1 -84 10q-81 16 -109 20q2 12 -2.5 27.5t-1.5 31.5q7 49 68 49q27 0 59 -18q35 -21 50 -23t26 -2q43 0 68 34q18 26 47 109q32 91 98 141zM1020 649q-6 -42 -80 -152l-132 -196q-70 -113 -70 -170q0 -34 54 -34q13 0 31 2q-21 -31 -56 -57
q-30 -21 -59 -42q-67 48 -67 99q0 6 6 44q11 83 122 265t123 265q4 30 36 45q27 12 57 8q38 -6 38 -47q0 -11 -3 -30zM1270 620q-46 -102 -112 -217l11 -15q21 9 42 17q25 10 45 7q38 -5 54 -57q26 -79 36 -94q72 62 143 124q107 84 155 77q23 -3 71.5 -66t45.5 -81
q-2 -16 -51 -81.5t-51 -81.5q-3 -23 6 -42.5t25 -21.5q13 -2 35.5 6t41.5 8q10 0 22 -1q-43 -33 -91 -78q-23 -22 -40 -22q-5 0 -13 2q-16 2 -49.5 46t-49.5 46q-16 3 -68 -16t-68 -17q-42 6 -106 89q-28 -19 -106 -94q-43 -41 -97 -41q-17 0 -38 3q-6 1 -49 18
q-35 14 -70 10q-10 10 -20 21q-8 8 -8 23q0 6 1 14q2 16 65 135t65.5 137.5t68.5 113.5q55 79 110 157q19 -24 44 -28zM742 634l-7 -49q-10 -10 -19 -18.5t-23 -8.5q-6 0 -14 1q-23 3 -26 5q-11 10 -23 20q1 9 -4 20t-3 28q4 28 20 40q11 9 44 20q9 -12 28.5 -30.5
t26.5 -27.5zM442 369q-6 -45 -73 -126t-144 -137q-86 -63 -136 -55q-51 7 -75 82q-18 55 -14 81q2 16 12 41t13 41q6 45 128.5 136t177.5 84q58 -9 88 -48q24 -33 24 -79q0 -10 -1 -20zM607 385q13 -17 15 -27q1 -8 -2 -34q-3 -19 -44 -94q-64 -118 -71 -133l-61 9
q3 20 1 51q-2 32 0 47q4 26 38 84q33 54 73 104zM1411 158q6 -11 9 -13q6 -7 20 -9q8 -1 16 -1q69 0 114 88q28 55 35 107q3 19 -8 30q-61 -36 -116.5 -97.5t-69.5 -104.5zM1078 123q1 -9 2 -10q2 -5 15 -7q42 -6 95 59q45 55 50 85q4 29 -19 47q-50 -26 -93 -83
q-36 -48 -50 -91zM117 289q-16 -18 -23 -29q-11 -18 -14 -37q-2 -17 1 -33q4 -19 4 -25q11 -10 31 -13q40 -6 99 44q46 38 92 98q40 53 42 68q1 8 1 14q0 27 -20 34q-1 1 -39 6q-18 3 -78 -41.5t-96 -85.5z" />
    <glyph glyph-name="overscore" unicode="&#xaf;" 
 />
    <glyph glyph-name="overscore" unicode="&#x2c9;" 
 />
    <glyph glyph-name="mu" unicode="&#xb5;" 
 />
    <glyph glyph-name="mu" unicode="&#x3bc;" 
 />
    <glyph glyph-name="periodcentered" unicode="&#xb7;" 
 />
    <glyph glyph-name="periodcentered" unicode="&#x2219;" 
 />
    <glyph glyph-name="Ccedilla" unicode="&#xc7;" horiz-adv-x="482" 
d="M466 687q0 -28 -26 -71q-30 -50 -65 -51q-1 7 -1 14q0 14 5.5 36t5.5 30q0 27 -36 47q-101 -40 -178 -198q-65 -134 -65 -226q0 -28 14 -81q22 -76 55 -76q27 0 88.5 54.5t78.5 97.5h59q14 -14 16.5 -21.5t2.5 -31.5q0 -31 -35 -73q-21 -25 -67 -66q-42 -37 -48 -47
q-28 -44 -46 -96q15 -14 79 -51q35 -20 35 -57q0 -43 -51 -110l-48 -8q-18 -18 -35 -36q-21 -20 -40 -20q-71 0 -97 93q13 0 30 -6t32 -6q21 0 88 70q-17 13 -54.5 23.5t-58.5 31.5q2 6 23 59q13 32 13 49q0 16 -21.5 33t-41.5 33q-33 33 -57 93q-19 50 -19 80
q0 14 5.5 63.5t5.5 64.5q0 83 92 252q84 156 124 179q29 18 83 30q46 10 74 10q36 0 62 -52q19 -39 19 -59z" />
    <glyph glyph-name="Ntilde" unicode="&#xd1;" horiz-adv-x="518" 
d="M538 953q0 -46 -65 -84q-53 -31 -85 -31q-13 0 -33 15t-32 15t-42 -30t-43 -30t-27 5t-23 5v44q116 116 145 116q13 0 32.5 -25t32.5 -25q12 0 49.5 40t50.5 40q40 0 40 -55zM555 733q0 -18 -24 -80q-30 -77 -38 -105q-31 -120 -62 -239q-43 -155 -88 -248q-8 0 -36 6.5
t-51 6.5q4 29 4 58q0 121 -79 241q-26 -43 -72 -196q-38 -129 -88 -177l-21 13q28 86 74 324q37 190 90 298q15 39 31 79q14 32 37 32q30 0 57 -16q33 -19 33 -49q0 -16 -19 -93.5t-19 -93.5q0 -47 50 -169q25 63 46 143q20 75 20 97q0 19 13 57q18 51 21 62q7 26 -7 64
q16 21 79 52q16 -14 32.5 -29t16.5 -38z" />
    <glyph glyph-name="ccedilla" unicode="&#xe7;" horiz-adv-x="441" 
d="M337 399v-62q-13 -15 -27 -29q-19 -16 -41 -16q-16 0 -22 12.5t-21 12.5q-27 0 -76 -67.5t-49 -87.5q0 -18 25.5 -43.5t43.5 -25.5t69 14l84 24q6 -1 13 -3q15 -6 31 -22q-14 -15 -60 -36q-51 -25 -71 -39q-33 -27 -35 -62q-2 -27 30 -56.5t32 -42.5q0 -73 -94 -123
q-71 -38 -117 -38q-55 0 -87 32v47q14 14 22.5 17t33.5 3q15 0 31 -9.5t24 -10.5l94 58q1 4 1 7q0 16 -63.5 18t-68.5 30q-2 15 39.5 39t41.5 35q0 12 -30 36q-44 34 -57 47q-31 33 -31 66q0 78 77 187q82 118 159 118q40 0 99 -30z" />
    <glyph glyph-name="ntilde" unicode="&#xf1;" horiz-adv-x="466" 
d="M463 707q0 -39 -46 -98q-33 -41 -93 -69q-55 -26 -99 -26q-19 0 -39 25q-16 23 -32 47l-33 -33h-49l-18 14q-3 4 -3 31q0 44 44 80q35 29 53 29q16 0 70.5 -38.5t70.5 -38.5q39 0 53 34q8 31 17 62q13 34 49 34q10 0 23 -2q11 -9 23 -18q9 -9 9 -33zM386 238
q0 -9 -13 -91t-13 -134q-20 0 -50.5 -6.5t-44.5 -6.5q-9 7 -18 15q-3 3 -3 30q0 16 19.5 90t19.5 90q0 26 -40 67q-50 -38 -90 -141t-90 -143q-22 23 -45 45q-18 20 -18 43q0 21 8 27.5t9 8.5q56 170 75 318q11 0 34.5 -13t40.5 -13q16 0 32 19.5t32 19.5q42 0 102 -109
q53 -96 53 -116z" />
    <glyph glyph-name="ograve" unicode="&#xf2;" 
 />
    <glyph glyph-name="increment" unicode="&#x394;" 
 />
    <glyph glyph-name="increment" unicode="&#x2206;" 
 />
    <glyph glyph-name="Zeta" unicode="&#x396;" 
 />
    <glyph glyph-name="Ohm" unicode="&#x3a9;" 
 />
    <glyph glyph-name="Ohm" unicode="&#x2126;" 
 />
    <glyph glyph-name="theta" unicode="&#x3b8;" 
 />
    <glyph glyph-name="theta" unicode="&#x473;" 
 />
    <glyph glyph-name="iota" unicode="&#x3b9;" 
 />
    <glyph glyph-name="kappa" unicode="&#x3ba;" 
 />
    <glyph glyph-name="lambda" unicode="&#x3bb;" 
 />
    <glyph glyph-name="nu" unicode="&#x3bd;" 
 />
    <glyph glyph-name="xi" unicode="&#x3be;" 
 />
    <glyph glyph-name="omicron" unicode="&#x3bf;" 
 />
    <glyph glyph-name="pi" unicode="&#x3c0;" 
 />
    <glyph glyph-name="rho" unicode="&#x3c1;" 
 />
    <glyph glyph-name="sigma1" unicode="&#x3c2;" 
 />
    <glyph glyph-name="sigma" unicode="&#x3c3;" 
 />
    <glyph glyph-name="tau" unicode="&#x3c4;" 
 />
    <glyph glyph-name="upsilon" unicode="&#x3c5;" 
 />
    <glyph glyph-name="phi" unicode="&#x3c6;" 
 />
    <glyph glyph-name="chi" unicode="&#x3c7;" 
 />
    <glyph glyph-name="psi" unicode="&#x3c8;" 
 />
    <glyph glyph-name="psi" unicode="&#x471;" 
 />
    <glyph glyph-name="omega" unicode="&#x3c9;" 
 />
    <glyph glyph-name="iotadieresis" unicode="&#x3ca;" 
 />
    <glyph glyph-name="upsilondieresis" unicode="&#x3cb;" 
 />
    <glyph glyph-name="omicrontonos" unicode="&#x3cc;" 
 />
    <glyph glyph-name="upsilontonos" unicode="&#x3cd;" 
 />
    <glyph glyph-name="omegatonos" unicode="&#x3ce;" 
 />
    <glyph glyph-name="afii10023" unicode="&#x401;" 
 />
    <glyph glyph-name="afii10051" unicode="&#x402;" 
 />
    <glyph glyph-name="afii10052" unicode="&#x403;" 
 />
    <glyph glyph-name="afii10053" unicode="&#x404;" 
 />
    <glyph glyph-name="afii10054" unicode="&#x405;" 
 />
    <glyph glyph-name="afii10055" unicode="&#x406;" 
 />
    <glyph glyph-name="afii10056" unicode="&#x407;" 
 />
    <glyph glyph-name="afii10057" unicode="&#x408;" 
 />
    <glyph glyph-name="afii10058" unicode="&#x409;" 
 />
    <glyph glyph-name="afii10059" unicode="&#x40a;" 
 />
    <glyph glyph-name="afii10060" unicode="&#x40b;" 
 />
    <glyph glyph-name="afii10061" unicode="&#x40c;" 
 />
    <glyph glyph-name="afii10062" unicode="&#x40e;" 
 />
    <glyph glyph-name="afii10145" unicode="&#x40f;" 
 />
    <glyph glyph-name="afii10017" unicode="&#x410;" 
 />
    <glyph glyph-name="afii10018" unicode="&#x411;" 
 />
    <glyph glyph-name="afii10019" unicode="&#x412;" 
 />
    <glyph glyph-name="afii10020" unicode="&#x413;" 
 />
    <glyph glyph-name="afii10021" unicode="&#x414;" 
 />
    <glyph glyph-name="afii10022" unicode="&#x415;" 
 />
    <glyph glyph-name="afii10024" unicode="&#x416;" 
 />
    <glyph glyph-name="afii10025" unicode="&#x417;" 
 />
    <glyph glyph-name="afii10026" unicode="&#x418;" 
 />
    <glyph glyph-name="afii10027" unicode="&#x419;" 
 />
    <glyph glyph-name="afii10028" unicode="&#x41a;" 
 />
    <glyph glyph-name="afii10029" unicode="&#x41b;" 
 />
    <glyph glyph-name="afii10030" unicode="&#x41c;" 
 />
    <glyph glyph-name="afii10031" unicode="&#x41d;" 
 />
    <glyph glyph-name="afii10032" unicode="&#x41e;" 
 />
    <glyph glyph-name="afii10033" unicode="&#x41f;" 
 />
    <glyph glyph-name="afii10034" unicode="&#x420;" 
 />
    <glyph glyph-name="afii10035" unicode="&#x421;" 
 />
    <glyph glyph-name="afii10036" unicode="&#x422;" 
 />
    <glyph glyph-name="afii10037" unicode="&#x423;" 
 />
    <glyph glyph-name="afii10038" unicode="&#x424;" 
 />
    <glyph glyph-name="afii10039" unicode="&#x425;" 
 />
    <glyph glyph-name="afii10040" unicode="&#x426;" 
 />
    <glyph glyph-name="afii10041" unicode="&#x427;" 
 />
    <glyph glyph-name="afii10042" unicode="&#x428;" 
 />
    <glyph glyph-name="afii10043" unicode="&#x429;" 
 />
    <glyph glyph-name="afii10044" unicode="&#x42a;" 
 />
    <glyph glyph-name="afii10045" unicode="&#x42b;" 
 />
    <glyph glyph-name="afii10046" unicode="&#x42c;" 
 />
    <glyph glyph-name="afii10047" unicode="&#x42d;" 
 />
    <glyph glyph-name="afii10048" unicode="&#x42e;" 
 />
    <glyph glyph-name="afii10049" unicode="&#x42f;" 
 />
    <glyph glyph-name="afii10065" unicode="&#x430;" 
 />
    <glyph glyph-name="afii10066" unicode="&#x431;" 
 />
    <glyph glyph-name="afii10067" unicode="&#x432;" 
 />
    <glyph glyph-name="afii10068" unicode="&#x433;" 
 />
    <glyph glyph-name="afii10069" unicode="&#x434;" 
 />
    <glyph glyph-name="afii10070" unicode="&#x435;" 
 />
    <glyph glyph-name="afii10072" unicode="&#x436;" 
 />
    <glyph glyph-name="afii10073" unicode="&#x437;" 
 />
    <glyph glyph-name="afii10074" unicode="&#x438;" 
 />
    <glyph glyph-name="afii10075" unicode="&#x439;" 
 />
    <glyph glyph-name="afii10076" unicode="&#x43a;" 
 />
    <glyph glyph-name="afii10077" unicode="&#x43b;" 
 />
    <glyph glyph-name="afii10078" unicode="&#x43c;" 
 />
    <glyph glyph-name="afii10079" unicode="&#x43d;" 
 />
    <glyph glyph-name="afii10080" unicode="&#x43e;" 
 />
    <glyph glyph-name="afii10081" unicode="&#x43f;" 
 />
    <glyph glyph-name="afii10082" unicode="&#x440;" 
 />
    <glyph glyph-name="afii10083" unicode="&#x441;" 
 />
    <glyph glyph-name="afii10084" unicode="&#x442;" 
 />
    <glyph glyph-name="afii10085" unicode="&#x443;" 
 />
    <glyph glyph-name="afii10086" unicode="&#x444;" 
 />
    <glyph glyph-name="afii10087" unicode="&#x445;" 
 />
    <glyph glyph-name="afii10088" unicode="&#x446;" 
 />
    <glyph glyph-name="afii10089" unicode="&#x447;" 
 />
    <glyph glyph-name="afii10090" unicode="&#x448;" 
 />
    <glyph glyph-name="afii10091" unicode="&#x449;" 
 />
    <glyph glyph-name="afii10092" unicode="&#x44a;" 
 />
    <glyph glyph-name="afii10093" unicode="&#x44b;" 
 />
    <glyph glyph-name="afii10094" unicode="&#x44c;" 
 />
    <glyph glyph-name="afii10095" unicode="&#x44d;" 
 />
    <glyph glyph-name="afii10096" unicode="&#x44e;" 
 />
    <glyph glyph-name="afii10097" unicode="&#x44f;" 
 />
    <glyph glyph-name="afii10071" unicode="&#x451;" 
 />
    <glyph glyph-name="afii10099" unicode="&#x452;" 
 />
    <glyph glyph-name="afii10100" unicode="&#x453;" 
 />
    <glyph glyph-name="afii10101" unicode="&#x454;" 
 />
    <glyph glyph-name="afii10102" unicode="&#x455;" 
 />
    <glyph glyph-name="afii10103" unicode="&#x456;" 
 />
    <glyph glyph-name="afii10104" unicode="&#x457;" 
 />
    <glyph glyph-name="afii10105" unicode="&#x458;" 
 />
    <glyph glyph-name="afii10106" unicode="&#x459;" 
 />
    <glyph glyph-name="afii10107" unicode="&#x45a;" 
 />
    <glyph glyph-name="afii10108" unicode="&#x45b;" 
 />
    <glyph glyph-name="afii10109" unicode="&#x45c;" 
 />
    <glyph glyph-name="afii10110" unicode="&#x45e;" 
 />
    <glyph glyph-name="afii10193" unicode="&#x45f;" 
 />
    <glyph glyph-name="afii10050" unicode="&#x490;" 
 />
    <glyph glyph-name="afii10098" unicode="&#x491;" 
 />
    <glyph glyph-name="Wgrave" unicode="&#x1e80;" 
 />
    <glyph glyph-name="wgrave" unicode="&#x1e81;" 
 />
    <glyph glyph-name="Wacute" unicode="&#x1e82;" 
 />
    <glyph glyph-name="wacute" unicode="&#x1e83;" 
 />
    <glyph glyph-name="Wdieresis" unicode="&#x1e84;" 
 />
    <glyph glyph-name="wdieresis" unicode="&#x1e85;" 
 />
    <glyph glyph-name="Ygrave" unicode="&#x1ef2;" 
 />
    <glyph glyph-name="ygrave" unicode="&#x1ef3;" 
 />
    <glyph glyph-name="endash" unicode="&#x2013;" 
 />
    <glyph glyph-name="emdash" unicode="&#x2014;" 
 />
    <glyph glyph-name="afii00208" unicode="&#x2015;" 
 />
    <glyph glyph-name="underscoredbl" unicode="&#x2017;" 
 />
    <glyph glyph-name="quoteleft" unicode="&#x2018;" 
 />
    <glyph glyph-name="quoteright" unicode="&#x2019;" 
 />
    <glyph glyph-name="quotesinglbase" unicode="&#x201a;" 
 />
    <glyph glyph-name="quotereversed" unicode="&#x201b;" 
 />
    <glyph glyph-name="quotedblleft" unicode="&#x201c;" 
 />
    <glyph glyph-name="quotedblright" unicode="&#x201d;" 
 />
    <glyph glyph-name="quotedblbase" unicode="&#x201e;" 
 />
    <glyph glyph-name="dagger" unicode="&#x2020;" 
 />
    <glyph glyph-name="daggerdbl" unicode="&#x2021;" 
 />
    <glyph glyph-name="bullet" unicode="&#x2022;" 
 />
    <glyph glyph-name="ellipsis" unicode="&#x2026;" 
 />
    <glyph glyph-name="perthousand" unicode="&#x2030;" 
 />
    <glyph glyph-name="minute" unicode="&#x2032;" 
 />
    <glyph glyph-name="second" unicode="&#x2033;" 
 />
    <glyph glyph-name="guilsinglleft" unicode="&#x2039;" 
 />
    <glyph glyph-name="guilsinglright" unicode="&#x203a;" 
 />
    <glyph glyph-name="exclamdbl" unicode="&#x203c;" 
 />
    <glyph glyph-name="radicalex" unicode="&#x203e;" 
 />
    <glyph glyph-name="fraction" unicode="&#x2044;" 
 />
    <glyph glyph-name="nsuperior" unicode="&#x207f;" 
 />
    <glyph glyph-name="franc" unicode="&#x20a3;" 
 />
    <glyph glyph-name="afii08941" unicode="&#x20a4;" 
 />
    <glyph glyph-name="peseta" unicode="&#x20a7;" 
 />
    <glyph glyph-name="afii61248" unicode="&#x2105;" 
 />
    <glyph glyph-name="afii61289" unicode="&#x2113;" 
 />
    <glyph glyph-name="afii61352" unicode="&#x2116;" 
 />
    <glyph glyph-name="trademark" unicode="&#x2122;" 
 />
    <glyph glyph-name="estimated" unicode="&#x212e;" 
 />
    <glyph glyph-name="oneeighth" unicode="&#x215b;" 
 />
    <glyph glyph-name="threeeighths" unicode="&#x215c;" 
 />
    <glyph glyph-name="fiveeighths" unicode="&#x215d;" 
 />
    <glyph glyph-name="seveneighths" unicode="&#x215e;" 
 />
    <glyph glyph-name="arrowleft" unicode="&#x2190;" 
 />
    <glyph glyph-name="arrowup" unicode="&#x2191;" 
 />
    <glyph glyph-name="arrowright" unicode="&#x2192;" 
 />
    <glyph glyph-name="arrowdown" unicode="&#x2193;" 
 />
    <glyph glyph-name="arrowboth" unicode="&#x2194;" 
 />
    <glyph glyph-name="arrowupdn" unicode="&#x2195;" 
 />
    <glyph glyph-name="arrowupdnbse" unicode="&#x21a8;" 
 />
    <glyph glyph-name="partialdiff" unicode="&#x2202;" 
 />
    <glyph glyph-name="product" unicode="&#x220f;" 
 />
    <glyph glyph-name="summation" unicode="&#x2211;" 
 />
    <glyph glyph-name="radical" unicode="&#x221a;" 
 />
    <glyph glyph-name="infinity" unicode="&#x221e;" 
 />
    <glyph glyph-name="orthogonal" unicode="&#x221f;" 
 />
    <glyph glyph-name="intersection" unicode="&#x2229;" 
 />
    <glyph glyph-name="integral" unicode="&#x222b;" 
 />
    <glyph glyph-name="approxequal" unicode="&#x2248;" 
 />
    <glyph glyph-name="approxequal" unicode="&#x22f2;" 
 />
    <glyph glyph-name="notequal" unicode="&#x2260;" 
 />
    <glyph glyph-name="equivalence" unicode="&#x2261;" 
 />
    <glyph glyph-name="lessequal" unicode="&#x2264;" 
 />
    <glyph glyph-name="greaterequal" unicode="&#x2265;" 
 />
    <glyph glyph-name="house" unicode="&#x2302;" 
 />
    <glyph glyph-name="revlogicalnot" unicode="&#x2310;" 
 />
    <glyph glyph-name="integraltp" unicode="&#x2320;" 
 />
    <glyph glyph-name="integralbt" unicode="&#x2321;" 
 />
    <glyph glyph-name="SF100000" unicode="&#x2500;" 
 />
    <glyph glyph-name="SF110000" unicode="&#x2502;" 
 />
    <glyph glyph-name="SF010000" unicode="&#x250c;" 
 />
    <glyph glyph-name="SF030000" unicode="&#x2510;" 
 />
    <glyph glyph-name="SF020000" unicode="&#x2514;" 
 />
    <glyph glyph-name="SF040000" unicode="&#x2518;" 
 />
    <glyph glyph-name="SF080000" unicode="&#x251c;" 
 />
    <glyph glyph-name="SF090000" unicode="&#x2524;" 
 />
    <glyph glyph-name="SF060000" unicode="&#x252c;" 
 />
    <glyph glyph-name="SF070000" unicode="&#x2534;" 
 />
    <glyph glyph-name="SF050000" unicode="&#x253c;" 
 />
    <glyph glyph-name="SF430000" unicode="&#x2550;" 
 />
    <glyph glyph-name="SF240000" unicode="&#x2551;" 
 />
    <glyph glyph-name="SF510000" unicode="&#x2552;" 
 />
    <glyph glyph-name="SF520000" unicode="&#x2553;" 
 />
    <glyph glyph-name="SF390000" unicode="&#x2554;" 
 />
    <glyph glyph-name="SF220000" unicode="&#x2555;" 
 />
    <glyph glyph-name="SF210000" unicode="&#x2556;" 
 />
    <glyph glyph-name="SF250000" unicode="&#x2557;" 
 />
    <glyph glyph-name="SF500000" unicode="&#x2558;" 
 />
    <glyph glyph-name="SF490000" unicode="&#x2559;" 
 />
    <glyph glyph-name="SF380000" unicode="&#x255a;" 
 />
    <glyph glyph-name="SF280000" unicode="&#x255b;" 
 />
    <glyph glyph-name="SF270000" unicode="&#x255c;" 
 />
    <glyph glyph-name="SF260000" unicode="&#x255d;" 
 />
    <glyph glyph-name="SF360000" unicode="&#x255e;" 
 />
    <glyph glyph-name="SF370000" unicode="&#x255f;" 
 />
    <glyph glyph-name="SF420000" unicode="&#x2560;" 
 />
    <glyph glyph-name="SF190000" unicode="&#x2561;" 
 />
    <glyph glyph-name="SF200000" unicode="&#x2562;" 
 />
    <glyph glyph-name="SF230000" unicode="&#x2563;" 
 />
    <glyph glyph-name="SF470000" unicode="&#x2564;" 
 />
    <glyph glyph-name="glyph4" 
 />
    <glyph glyph-name="glyph73" 
 />
    <glyph glyph-name="glyph74" 
 />
    <glyph glyph-name="glyph75" 
 />
    <glyph glyph-name="glyph76" 
 />
    <glyph glyph-name="glyph77" horiz-adv-x="2506" 
d="M2209 790q-2 -12 3 -24t2 -29q-2 -16 -49.5 -72.5t-49.5 -72.5l-5 -34q1 -6 2.5 -11.5t14.5 -7.5q16 -2 115 23.5t115 22.5q19 -2 35 -17q10 -10 20 -19q16 0 77 -8q-2 -12 3 -24.5t2 -29.5q-2 -16 -74.5 -65t-74.5 -65q-3 -16 48 -65q61 -61 78 -91q-44 -38 -135 -65
q-83 -25 -143 -25q-12 0 -21 1q-49 7 -63 24t-39 96q25 -4 55.5 -21.5t44.5 -19.5q38 -5 138 48l-60 78q-23 31 -19 57q6 43 45 81q26 25 92 68q-1 9 -16 11q-32 4 -144 -31q-131 -40 -181 -89q-43 -42 -68 -111q-15 -41 -33.5 -134t-35.5 -139q-49 24 -49 81q0 14 5 47
q2 17 31 81t31 80l14 102q-29 -1 -84 10q-81 16 -109 20q2 12 -2.5 27.5t-1.5 31.5q7 49 68 49q27 0 59 -18q35 -21 50 -23t26 -2q43 0 68 34q18 26 47 109q32 91 98 141zM1020 649q-6 -42 -80 -152l-132 -196q-70 -113 -70 -170q0 -34 54 -34q13 0 31 2q-21 -31 -56 -57
q-30 -21 -59 -42q-67 48 -67 99q0 6 6 44q11 83 122 265t123 265q4 30 36 45q27 12 57 8q38 -6 38 -47q0 -11 -3 -30zM1270 620q-46 -102 -112 -217l11 -15q21 9 42 17q25 10 45 7q38 -5 54 -57q26 -79 36 -94q72 62 143 124q107 84 155 77q23 -3 71.5 -66t45.5 -81
q-2 -16 -51 -81.5t-51 -81.5q-3 -23 6 -42.5t25 -21.5q13 -2 35.5 6t41.5 8q10 0 22 -1q-43 -33 -91 -78q-23 -22 -40 -22q-5 0 -13 2q-16 2 -49.5 46t-49.5 46q-16 3 -68 -16t-68 -17q-42 6 -106 89q-28 -19 -106 -94q-43 -41 -97 -41q-17 0 -38 3q-6 1 -49 18
q-35 14 -70 10q-10 10 -20 21q-8 8 -8 23q0 6 1 14q2 16 65 135t65.5 137.5t68.5 113.5q55 79 110 157q19 -24 44 -28zM742 634l-7 -49q-10 -10 -19 -18.5t-23 -8.5q-6 0 -14 1q-23 3 -26 5q-11 10 -23 20q1 9 -4 20t-3 28q4 28 20 40q11 9 44 20q9 -12 28.5 -30.5
t26.5 -27.5zM442 369q-6 -45 -73 -126t-144 -137q-86 -63 -136 -55q-51 7 -75 82q-18 55 -14 81q2 16 12 41t13 41q6 45 128.5 136t177.5 84q58 -9 88 -48q24 -33 24 -79q0 -10 -1 -20zM607 385q13 -17 15 -27q1 -8 -2 -34q-3 -19 -44 -94q-64 -118 -71 -133l-61 9
q3 20 1 51q-2 32 0 47q4 26 38 84q33 54 73 104zM1411 158q6 -11 9 -13q6 -7 20 -9q8 -1 16 -1q69 0 114 88q28 55 35 107q3 19 -8 30q-61 -36 -116.5 -97.5t-69.5 -104.5zM1078 123q1 -9 2 -10q2 -5 15 -7q42 -6 95 59q45 55 50 85q4 29 -19 47q-50 -26 -93 -83
q-36 -48 -50 -91zM117 289q-16 -18 -23 -29q-11 -18 -14 -37q-2 -17 1 -33q4 -19 4 -25q11 -10 31 -13q40 -6 99 44q46 38 92 98q40 53 42 68q1 8 1 14q0 27 -20 34q-1 1 -39 6q-18 3 -78 -41.5t-96 -85.5z" />
    <glyph glyph-name="glyph110" 
 />
    <glyph glyph-name="glyph205" 
 />
    <glyph glyph-name="glyph214" 
 />
    <glyph glyph-name="glyph226" 
 />
    <glyph glyph-name="glyph240" 
 />
    <glyph glyph-name="glyph244" 
 />
    <glyph glyph-name="glyph251" 
 />
    <glyph glyph-name="glyph256" 
 />
    <glyph glyph-name="glyph264" 
 />
    <glyph glyph-name="glyph270" 
 />
    <glyph glyph-name="glyph282" 
 />
    <glyph glyph-name="glyph284" 
 />
    <glyph glyph-name="glyph288" 
 />
    </font>
</defs>
</svg>
